<?xml version="1.0" standalone="no"?>
<!DOCTYPE svg PUBLIC "-//W3C//DTD SVG 20010904//EN"
 "http://www.w3.org/TR/2001/REC-SVG-20010904/DTD/svg10.dtd">
<svg version="1.0" xmlns="http://www.w3.org/2000/svg"
 width="1200.000000pt" height="1200.000000pt" viewBox="0 0 1200.000000 1200.000000"
 preserveAspectRatio="xMidYMid meet">
<metadata>
Created by potrace 1.14, written by Peter Selinger 2001-2017
</metadata>
<g transform="translate(0.000000,1200.000000) scale(0.100000,-0.100000)"
fill="#000000" stroke="none">
<path d="M7448 10045 c-2 -2 -25 -6 -51 -9 -263 -32 -529 -172 -687 -363 -140
-168 -219 -401 -224 -663 -4 -178 79 -318 232 -391 61 -30 76 -33 162 -33 83
-1 102 3 154 27 159 74 237 197 242 382 2 100 9 136 36 189 55 108 149 155
298 151 189 -6 294 -128 286 -334 -4 -105 -43 -203 -111 -278 -110 -122 -154
-170 -175 -193 -137 -148 -221 -239 -249 -269 -18 -20 -70 -76 -115 -125 -44
-49 -101 -109 -124 -135 -24 -25 -72 -76 -105 -114 -34 -38 -80 -88 -102 -111
-22 -23 -80 -87 -130 -141 -49 -54 -101 -110 -115 -125 -62 -67 -137 -148
-160 -173 l-24 -28 -1 -350 c0 -193 3 -353 7 -355 7 -5 290 -7 313 -3 6 1 15
0 20 -1 25 -5 1534 0 1568 5 229 38 360 300 255 512 -25 50 -78 107 -133 141
-78 49 -106 52 -597 52 -252 0 -458 3 -458 6 0 3 26 34 59 68 107 112 165 173
261 276 52 56 120 128 150 160 30 32 105 111 165 176 114 122 192 204 249 264
46 49 174 207 188 233 6 12 17 28 25 35 7 7 13 20 13 28 0 8 5 14 10 14 6 0
10 6 10 13 0 6 6 23 13 37 58 113 81 233 81 415 -2 391 -181 702 -504 877 -80
44 -216 93 -302 109 -34 6 -74 14 -88 16 -31 6 -336 13 -342 8z"/>
<path d="M2 6955 l3 -1710 418 0 417 0 0 45 c1 25 1 329 1 677 l1 631 542 1
542 0 0 -662 c-1 -364 0 -669 2 -677 3 -14 54 -16 420 -15 l417 0 0 1710 0
1710 -413 0 c-364 1 -414 -1 -421 -15 -4 -8 -6 -304 -6 -657 l2 -643 -543 0
-542 0 0 651 c0 358 -3 654 -7 657 -4 4 -193 7 -421 7 l-414 1 2 -1711z"/>
<path d="M3372 8660 c-5 -4 -8 -3353 -3 -3405 1 -7 415 -10 1259 -10 l1257 0
1 365 c0 201 -3 370 -7 375 -5 7 -294 10 -836 9 -455 0 -830 3 -833 7 -4 6 -5
457 -1 569 l1 25 727 0 728 0 1 370 c1 204 -2 372 -6 375 -5 3 -333 5 -729 5
-718 -1 -721 -1 -722 20 -3 61 -4 522 -1 535 3 14 96 15 830 15 455 -1 832 0
837 2 6 2 10 136 10 376 l0 372 -1253 0 c-689 1 -1256 -2 -1260 -5z"/>
<path d="M9255 8659 c-3 -3 -4 -773 -4 -1710 l0 -1704 902 1 c496 0 927 4 957
8 175 23 365 91 491 177 187 127 335 352 373 569 3 19 9 46 12 60 14 55 12
298 -3 376 -42 230 -151 393 -350 525 l-54 36 48 38 c26 21 71 63 100 93 54
56 139 172 127 172 -3 0 -1 7 7 16 48 59 90 236 89 378 -4 333 -118 576 -360
768 -79 63 -294 155 -400 172 -19 3 -46 8 -60 10 -14 3 -47 8 -75 12 -64 9
-1795 12 -1800 3z m1529 -750 c112 -2 170 -16 225 -56 31 -22 77 -80 72 -91
-1 -1 5 -15 12 -30 20 -40 21 -139 1 -197 -21 -64 -47 -101 -93 -129 -77 -49
-92 -50 -508 -52 -351 -1 -393 1 -397 15 -2 9 -4 134 -4 278 l0 263 292 2
c160 2 293 2 297 1 3 -1 49 -3 103 -4z m199 -1329 c95 -34 165 -134 172 -248
4 -57 1 -83 -16 -152 -8 -29 -60 -100 -93 -125 -61 -47 -120 -57 -301 -55 -11
0 -149 0 -307 -1 -158 0 -292 2 -297 6 -6 3 -11 2 -11 -3 0 -6 -8 -8 -19 -5
-18 4 -18 20 -18 304 l0 299 426 -4 c323 -2 435 -6 464 -16z"/>
<path d="M6487 5985 c-1 -5 -2 -95 -2 -200 l1 -190 1099 0 1100 0 0 200 0 200
-1097 0 c-751 1 -1098 -2 -1101 -10z"/>
<path d="M3085 4602 c-2 -2 -34 -5 -72 -7 -228 -14 -439 -83 -578 -189 -68
-52 -85 -69 -124 -121 -107 -140 -146 -266 -145 -475 1 -301 102 -471 364
-613 60 -32 242 -99 300 -111 14 -3 34 -7 45 -10 17 -4 301 -65 375 -80 128
-27 249 -78 297 -125 66 -66 82 -189 37 -277 -34 -64 -145 -134 -239 -150
-119 -19 -318 -19 -435 1 -91 15 -151 28 -220 46 -95 25 -303 100 -311 112 -3
5 -8 8 -10 7 -8 -3 -109 40 -179 76 -3 1 -6 -123 -6 -277 0 -153 4 -280 8
-280 11 -2 21 -5 38 -12 17 -6 90 -30 105 -33 6 -2 49 -14 98 -27 48 -14 87
-23 87 -20 0 3 7 0 15 -7 8 -7 15 -10 15 -7 0 3 17 1 38 -4 20 -6 51 -12 67
-15 17 -2 52 -9 79 -15 27 -5 51 -7 53 -5 3 3 15 1 27 -3 60 -23 536 -36 661
-18 125 18 244 44 295 64 8 4 17 7 20 8 3 1 22 9 44 18 21 9 40 17 42 17 1 0
31 17 66 37 82 48 194 162 236 240 64 121 93 237 97 394 7 290 -74 471 -271
606 -34 23 -64 40 -66 37 -3 -2 -11 2 -18 11 -7 8 -20 15 -29 15 -9 0 -21 4
-27 9 -8 7 -111 49 -139 56 -5 1 -17 5 -25 8 -8 4 -26 9 -40 11 -14 3 -61 14
-105 25 -44 11 -93 22 -110 25 -16 2 -51 9 -77 14 -27 5 -48 7 -48 4 0 -2 -7
2 -17 9 -9 8 -19 13 -22 11 -5 -3 -87 7 -111 13 -3 1 -31 7 -63 14 -70 15
-184 53 -217 72 -144 83 -131 301 22 380 130 67 394 81 654 35 113 -20 285
-65 301 -78 7 -6 13 -8 13 -4 0 6 146 -46 190 -69 l30 -16 1 33 c0 18 1 141 1
273 l0 239 -29 8 c-15 5 -41 11 -58 13 -16 3 -46 10 -65 15 -38 10 -50 12
-185 35 -115 20 -128 22 -200 30 -33 4 -73 9 -90 11 -75 9 -384 21 -390 16z"/>
<path d="M9 4525 c-1 -39 -1 -2507 0 -2518 1 -5 9 -7 19 -6 9 1 22 0 27 -1 6
-1 39 -1 75 0 36 1 72 1 80 1 11 0 264 -1 365 0 6 0 46 -1 90 -1 44 -1 85 -1
90 0 6 1 14 2 18 1 5 -1 54 -1 110 -1 56 0 111 0 122 0 11 0 49 0 85 1 36 0
72 0 80 0 11 0 272 -1 365 0 6 0 46 -1 90 -1 44 -1 85 -1 90 0 6 1 33 1 60 0
28 -1 69 -3 93 -3 23 -1 42 3 43 8 3 30 4 472 1 482 -3 8 -157 11 -603 11
-329 -1 -602 1 -605 4 -6 7 -5 570 1 577 3 2 251 4 553 4 l547 0 0 249 0 248
-40 1 c-22 0 -271 0 -552 0 l-513 0 0 238 0 237 576 0 c317 -1 581 2 587 6 9
5 12 78 12 248 0 132 -2 241 -5 241 -3 1 -422 2 -933 3 l-927 1 -1 -30z"/>
<path d="M4410 3278 c0 -1206 1 -1278 18 -1279 37 -1 158 0 167 1 6 2 14 2 18
1 5 -1 54 -1 110 -1 56 0 111 0 122 0 11 0 49 0 85 1 76 1 72 1 128 -3 40 -3
42 -2 43 25 0 36 0 2492 0 2515 -1 16 -24 17 -346 17 l-345 0 0 -1277z"/>
</g>
</svg>
